<?xml version="1.0" standalone="no"?>
<!DOCTYPE svg PUBLIC "-//W3C//DTD SVG 20010904//EN"
 "http://www.w3.org/TR/2001/REC-SVG-20010904/DTD/svg10.dtd">
<svg version="1.0" xmlns="http://www.w3.org/2000/svg"
 width="1044.000000pt" height="526.000000pt" viewBox="0 0 1044.000000 526.000000"
 preserveAspectRatio="xMidYMid meet">

<g transform="translate(0.000000,526.000000) scale(0.100000,-0.100000)"
fill="#000000" stroke="none">
<path d="M0 2630 l0 -2630 5220 0 5220 0 0 2630 0 2630 -5220 0 -5220 0 0
-2630z m3561 2113 c0 -5 2 -17 5 -28 5 -23 44 -286 44 -298 0 -4 24 16 53 46
52 54 104 77 173 77 161 0 277 -178 278 -425 0 -117 -21 -179 -82 -238 -75
-72 -211 -87 -293 -32 -45 29 -54 27 -62 -14 -8 -37 -27 -48 -97 -52 l-54 -4
-7 35 c-4 19 -15 85 -24 145 -25 171 -114 717 -121 742 -7 24 8 31 91 43 71
11 95 11 96 3z m2353 -19 c13 -5 15 -18 9 -80 l-6 -74 39 0 c21 0 63 -3 92 -6
l52 -7 0 -51 c0 -99 1 -98 -105 -90 l-92 7 -6 -44 c-3 -24 -12 -106 -19 -183
l-12 -138 28 -25 c26 -22 37 -24 95 -21 l66 3 3 -55 c4 -84 -7 -94 -115 -98
-104 -4 -160 8 -204 45 -63 54 -71 122 -44 381 8 79 13 148 10 153 -4 5 -17 9
-30 9 -39 0 -55 11 -55 37 0 40 17 60 66 79 43 16 49 23 79 91 l34 73 50 0
c27 0 56 -3 65 -6z m-392 -154 c-1 -25 -5 -64 -8 -86 l-5 -42 -74 -4 c-79 -4
-109 -18 -149 -72 -19 -25 -21 -44 -24 -231 -3 -161 -6 -206 -18 -216 -10 -8
-39 -9 -100 -4 l-87 7 6 142 c4 77 10 232 13 344 l7 202 68 0 68 0 11 -42 c19
-75 18 -75 62 -29 55 58 109 82 178 79 l55 -3 -3 -45z m-772 4 c95 -54 141
-143 144 -279 l1 -70 -120 -7 c-66 -4 -163 -11 -215 -15 l-95 -8 3 -30 c5 -45
38 -91 79 -110 51 -24 168 -16 251 18 76 30 84 24 80 -65 l-3 -63 -65 -24
c-56 -21 -83 -25 -190 -25 -107 0 -132 3 -171 21 -98 45 -162 141 -180 270
-29 212 49 358 221 414 14 5 66 7 115 6 80 -2 97 -6 145 -33z m1835 -84 c74
-19 156 -58 170 -81 8 -12 -55 -119 -70 -119 -5 0 -41 16 -80 35 -48 25 -84
36 -116 37 -56 1 -69 -6 -69 -36 0 -26 30 -55 126 -120 39 -26 89 -65 110 -87
37 -37 39 -43 42 -112 3 -61 0 -79 -21 -117 -51 -97 -171 -131 -333 -95 -97
21 -194 68 -194 93 1 35 27 127 36 126 5 0 43 -17 84 -37 96 -47 183 -59 219
-30 34 28 22 62 -34 104 -214 158 -225 171 -225 261 0 35 7 75 16 95 45 94
172 126 339 83z m910 -5 c44 -14 141 -44 215 -66 159 -47 190 -58 190 -70 0
-28 -36 -132 -47 -136 -12 -5 -104 19 -227 58 -33 10 -65 19 -71 19 -13 0 -65
-152 -65 -188 0 -18 17 -26 133 -62 72 -23 136 -46 140 -50 10 -9 -21 -118
-38 -138 -10 -11 -34 -7 -131 23 -65 21 -129 39 -141 42 -23 5 -17 20 -93
-232 -30 -102 -29 -101 -87 -86 -104 26 -116 30 -125 39 -6 6 14 87 57 223 36
118 94 306 127 419 51 172 72 230 82 230 1 0 37 -11 81 -25z m-4392 -142 c17
-11 46 -38 64 -62 34 -44 43 -69 117 -341 24 -91 48 -173 51 -182 8 -21 -11
-31 -104 -56 -66 -18 -72 -18 -80 -3 -5 9 -28 92 -50 184 -51 206 -75 270
-108 297 -32 25 -66 25 -121 0 -88 -40 -91 -113 -17 -375 24 -88 45 -167 45
-176 0 -11 -24 -22 -80 -38 -44 -13 -85 -21 -92 -18 -7 2 -35 87 -61 188 -27
101 -66 249 -89 328 -22 79 -36 147 -31 151 4 4 37 14 71 23 l64 15 20 -34
c11 -19 23 -34 26 -34 4 0 20 20 37 45 31 47 94 88 161 104 54 14 139 6 177
-16z m5132 -47 c64 -27 76 -106 25 -158 -27 -26 -36 -30 -70 -25 -101 13 -139
95 -79 170 24 31 69 36 124 13z m-5950 -216 c22 -9 57 -35 78 -56 40 -41 93
-138 103 -191 5 -28 3 -34 -17 -42 -13 -5 -104 -40 -201 -77 -111 -42 -178
-72 -178 -80 0 -25 76 -91 113 -98 58 -11 160 29 239 95 26 22 51 39 56 39 11
0 52 -95 52 -121 0 -24 -67 -79 -136 -113 -190 -93 -338 -79 -453 44 -65 70
-116 225 -109 330 6 80 29 132 83 185 104 103 252 137 370 85z m-813 -47 c53
-117 233 -502 302 -646 36 -76 66 -144 66 -152 0 -12 -139 -85 -162 -85 -7 0
-148 280 -148 296 0 5 -157 348 -222 486 -23 48 -40 89 -37 92 11 10 146 75
157 76 7 0 27 -30 44 -67z m6657 15 c45 -17 81 -36 81 -42 0 -6 -18 -56 -39
-111 -22 -55 -75 -194 -117 -308 -45 -124 -83 -211 -92 -215 -16 -6 -136 32
-159 51 -7 5 -13 16 -13 24 0 8 37 110 83 227 46 116 101 255 121 309 21 53
42 97 47 97 4 0 44 -14 88 -32z m438 -174 c93 -31 151 -65 214 -124 l64 -60
-48 -45 c-27 -25 -52 -45 -56 -45 -5 0 -34 23 -67 51 -84 74 -147 97 -174 64
-20 -25 -4 -56 79 -154 44 -51 88 -113 97 -137 46 -121 -61 -274 -191 -274
-90 0 -249 69 -332 145 l-46 41 32 61 c17 34 35 64 40 68 6 3 37 -19 70 -49
105 -97 204 -132 230 -82 19 34 8 57 -75 156 -123 146 -138 212 -73 314 49 79
135 104 236 70z m713 -58 c87 -54 85 -52 73 -68 -6 -7 -47 -72 -91 -145 l-81
-132 68 6 c108 9 203 -35 259 -119 24 -36 27 -51 27 -118 -1 -74 -3 -80 -49
-161 -27 -46 -60 -104 -74 -129 -116 -208 -136 -240 -150 -240 -15 0 -149 77
-158 91 -2 5 45 93 106 196 125 213 141 252 119 291 -21 38 -76 72 -117 72
-42 0 -94 -30 -124 -73 -13 -17 -60 -97 -105 -177 -114 -204 -94 -189 -185
-135 -43 25 -78 52 -78 61 0 8 42 85 93 172 114 192 219 371 279 477 25 44 57
101 72 128 15 26 31 47 35 47 5 0 42 -20 81 -44z m-8217 -38 c20 -119 20 -117
-5 -127 -12 -5 -48 -14 -78 -21 -129 -29 -223 -124 -237 -239 -15 -126 96
-317 213 -366 59 -24 118 -19 184 16 32 17 68 41 79 53 l22 23 -37 64 c-55 97
-48 94 -122 54 -35 -20 -70 -34 -77 -31 -13 5 -75 106 -75 122 0 16 278 174
304 174 6 0 52 -71 101 -157 50 -86 101 -176 115 -199 l25 -43 -30 -31 c-17
-18 -63 -59 -104 -91 -209 -170 -409 -197 -565 -78 -90 69 -190 223 -221 339
-29 109 -8 235 53 327 78 117 289 239 418 242 28 1 32 -3 37 -31z m4495 -975
c116 -119 212 -223 212 -230 0 -9 -17 -13 -57 -13 -32 0 -68 -3 -81 -6 -19 -6
-52 23 -222 192 -110 109 -199 203 -197 209 4 13 97 64 117 65 8 0 111 -97
228 -217z m-153 -264 c-22 -3 -62 -9 -89 -12 l-49 -5 -154 146 c-84 80 -152
150 -150 156 1 6 32 25 67 43 l65 32 175 -176 175 -177 -40 -7z m-426 97 c68
-68 119 -126 114 -129 -4 -3 -44 -10 -87 -16 l-78 -11 -67 59 c-102 92 -154
148 -146 160 10 16 97 60 120 61 13 0 65 -45 144 -124z m-3548 -39 c145 -75
352 -207 703 -451 117 -81 115 -79 76 -113 -71 -60 -58 -61 -198 13 -210 110
-586 316 -603 330 -8 8 -23 51 -33 96 -10 46 -22 96 -27 112 -18 58 -8 60 82
13z m3251 -44 c43 -43 78 -83 78 -89 0 -12 -13 -16 -93 -30 -35 -6 -46 -1
-125 52 -48 32 -89 60 -91 62 -14 9 109 82 139 82 8 0 50 -35 92 -77z m1878
-132 c41 -6 129 -18 195 -27 137 -18 340 -55 465 -85 91 -21 353 -90 358 -94
1 -1 -37 -43 -85 -92 -136 -138 -200 -265 -210 -418 -5 -66 -1 -97 21 -179 69
-259 262 -438 553 -512 53 -13 101 -28 106 -33 24 -24 -434 -143 -728 -190
-414 -66 -652 -86 -1005 -86 -307 0 -387 7 -660 57 -91 16 -201 36 -245 44
-75 13 -158 31 -560 120 -236 52 -582 139 -730 183 -297 88 -695 202 -845 241
-19 5 -60 16 -90 24 -148 39 -274 59 -344 53 -61 -5 -88 -15 -193 -68 -108
-54 -126 -61 -160 -54 -20 4 -49 13 -63 20 -90 47 -190 241 -190 369 0 93 79
219 164 263 36 19 91 13 191 -21 211 -71 281 -83 407 -67 156 20 266 47 454
111 98 33 258 83 354 110 96 28 189 54 205 59 58 18 292 71 485 111 107 22
211 45 230 50 143 37 718 107 1020 124 139 7 829 -2 900 -13z m-4997 -268 c67
-36 145 -78 172 -93 161 -85 335 -183 335 -189 0 -10 -35 -99 -41 -106 -7 -6
-551 103 -561 113 -13 13 -45 342 -34 342 4 0 62 -30 129 -67z m1829 35 c27
-18 48 -36 48 -39 0 -12 -250 -97 -287 -99 -7 0 -13 6 -13 13 0 7 -9 18 -20
25 -33 20 -23 37 33 57 28 10 79 31 112 47 33 15 64 28 70 28 5 0 31 -15 57
-32z m4464 -62 c183 -63 463 -174 624 -247 36 -17 101 -44 144 -62 43 -18 85
-42 93 -53 12 -19 11 -25 -12 -52 -15 -19 -55 -43 -103 -62 -107 -44 -248
-118 -284 -148 -40 -34 -49 -61 -32 -94 20 -39 55 -44 149 -24 249 55 305 59
305 23 0 -21 -50 -63 -125 -105 -38 -21 -140 -80 -225 -130 -145 -86 -158 -92
-211 -92 -80 0 -232 27 -325 59 -272 92 -444 298 -444 531 0 113 37 204 129
318 37 46 188 172 206 172 6 0 56 -15 111 -34z m-6134 -421 c331 -71 307 -64
314 -91 10 -38 0 -49 -52 -62 -27 -6 -116 -30 -199 -52 -220 -59 -285 -74
-295 -64 -4 5 -11 78 -14 162 -7 147 -6 152 13 152 10 0 115 -20 233 -45z
m388 -295 c11 -21 20 -41 20 -44 0 -3 -30 -22 -67 -42 -38 -20 -130 -72 -206
-116 -77 -43 -141 -78 -144 -78 -2 0 -42 -22 -89 -50 -47 -27 -87 -50 -91 -50
-4 0 -14 -7 -24 -16 -39 -35 -42 -1 -23 223 l5 62 57 16 c253 69 457 123 482
128 54 9 60 7 80 -33z m133 -163 c18 -12 41 -27 51 -33 11 -6 21 -15 23 -21 4
-11 -159 -136 -361 -277 -348 -242 -557 -342 -532 -253 4 12 12 59 18 105 l12
83 65 39 c36 21 93 52 126 70 138 73 308 168 425 236 69 39 129 72 133 73 5 1
23 -9 40 -22z m1056 -41 c19 -6 36 -16 38 -21 3 -11 -154 -118 -165 -113 -28
13 -82 55 -82 64 0 6 28 30 62 52 65 43 69 43 147 18z m237 -65 c16 -5 48 -14
72 -20 32 -9 41 -15 34 -26 -12 -22 -232 -175 -251 -175 -25 1 -111 68 -105
82 5 13 200 148 213 148 5 0 21 -4 37 -9z m338 -101 c36 -12 66 -26 66 -33 -1
-11 -83 -66 -286 -194 l-67 -42 -41 24 c-23 13 -42 31 -44 39 -3 14 274 219
304 226 1 0 32 -9 68 -20z m1236 -304 c30 -7 85 -19 121 -26 97 -17 99 -20 54
-77 -67 -83 -208 -218 -258 -247 -52 -30 -69 -26 -83 17 -4 12 -20 49 -35 82
-22 48 -26 63 -16 76 7 9 26 34 42 56 17 23 42 61 57 87 30 51 37 53 118 32z"/>
<path d="M3724 4366 c-53 -23 -74 -60 -74 -130 0 -123 44 -241 98 -265 40 -19
88 -13 120 14 45 38 56 74 50 168 -7 100 -37 171 -87 204 -39 26 -63 28 -107
9z"/>
<path d="M4530 4467 c-33 -17 -70 -74 -70 -108 l0 -29 93 0 c50 0 109 3 130 6
36 7 38 8 31 38 -19 87 -108 132 -184 93z"/>
<path d="M2093 3949 c-50 -15 -83 -61 -83 -120 0 -44 2 -49 23 -49 23 0 205
66 221 81 13 12 -19 56 -57 79 -35 22 -55 23 -104 9z"/>
<path d="M6371 2321 c-48 -36 -19 -121 41 -121 25 0 68 44 68 70 0 26 -43 70
-67 70 -10 0 -29 -9 -42 -19z"/>
<path d="M5226 2239 c-45 -36 -30 -95 30 -113 31 -9 74 28 74 64 0 29 -38 70
-65 70 -7 0 -24 -9 -39 -21z"/>
<path d="M4346 2114 c-20 -20 -20 -63 0 -92 20 -29 64 -29 92 1 26 27 28 54 6
85 -18 26 -74 30 -98 6z"/>
<path d="M5667 2112 c-25 -27 -22 -78 5 -96 31 -22 64 -20 88 6 24 26 26 56 4
86 -19 28 -74 30 -97 4z"/>
<path d="M6857 2112 c-36 -40 -6 -112 46 -112 30 0 67 39 67 72 0 52 -78 79
-113 40z"/>
<path d="M4762 1924 c-47 -32 -17 -114 42 -114 41 0 66 26 66 68 0 34 -29 62
-65 62 -11 0 -31 -7 -43 -16z"/>
<path d="M3752 1843 c-31 -28 -35 -56 -11 -86 38 -49 119 -26 119 34 0 58 -65
89 -108 52z"/>
<path d="M6173 1800 c-89 -28 -109 -132 -50 -262 90 -196 313 -456 443 -518
71 -33 162 -50 270 -50 89 0 105 3 129 21 28 23 28 26 9 102 -6 25 -3 29 37
46 24 10 78 22 119 26 86 8 110 23 110 70 0 128 -440 434 -770 535 -113 35
-239 47 -297 30z m224 -130 c166 -46 412 -177 582 -310 74 -57 86 -79 49 -82
-53 -3 -21 -17 -583 244 -82 39 -167 77 -188 85 -38 16 -59 46 -50 71 8 19
108 15 190 -8z m130 -318 c103 -49 221 -104 261 -122 l74 -34 -7 -45 c-4 -25
-11 -50 -15 -55 -13 -14 -157 9 -214 34 -30 12 -80 51 -129 98 -95 92 -187
212 -163 212 3 0 89 -40 193 -88z"/>
<path d="M3246 1768 c-23 -33 -19 -64 10 -87 32 -25 52 -26 82 -5 28 19 30 74
4 97 -27 25 -78 22 -96 -5z"/>
<path d="M2447 1752 c-36 -39 -7 -102 45 -102 25 0 58 36 58 63 0 50 -70 76
-103 39z"/>
<path d="M7800 1910 c-44 -48 -98 -167 -110 -247 -25 -161 43 -303 179 -372
52 -27 160 -61 191 -61 33 0 60 28 60 62 0 30 -24 54 -65 64 -95 23 -189 85
-221 146 -35 67 -8 214 56 310 36 52 38 91 8 112 -34 24 -67 19 -98 -14z"/>
<path d="M8127 1830 c-82 -65 -38 -190 67 -190 98 0 140 121 65 184 -38 32
-95 35 -132 6z"/>
</g>
</svg>
